<?xml version="1.0" encoding="utf-8"?>
<!-- Generator: Adobe Illustrator 19.2.1, SVG Export Plug-In . SVG Version: 6.00 Build 0)  -->
<svg version="1.1" id="Capa_1" xmlns="http://www.w3.org/2000/svg" xmlns:xlink="http://www.w3.org/1999/xlink" x="0px" y="0px"
	 viewBox="0 0 494.2 494.2" style="enable-background:new 0 0 494.2 494.2;" xml:space="preserve">
<style type="text/css">
	.st0{fill:#FFFFFF;}
</style>
<g>
	<ellipse class="st0" cx="233.1" cy="293.5" rx="39.4" ry="39.4"/>
	<path class="st0" d="M461,267.3c-0.8-0.8-2-1.1-3-0.7l-25,10.4c-4.4-54-30.4-101.9-69.2-135.4l14.1-21.3
		c8.3-12.5,4.9-29.4-7.6-37.7c-12.6-8.3-29.4-4.9-37.7,7.6L318.2,112c-18-8.5-37.4-14.3-57.9-17.1V72.5h3.4
		c20,0,36.3-16.2,36.3-36.3c0-20-16.2-36.3-36.3-36.3h-61.2c-20,0-36.3,16.2-36.3,36.3c0,20,16.2,36.3,36.3,36.3h3.4v22.4
		c-97.8,13.4-173.5,97.2-173.5,198.6c0,110.7,90,200.7,200.7,200.7c69.8,0,131.3-35.9,167.3-90.1c-8.8-1.6-16.4-6.9-20.3-15
		l-15.6-31.6c-23.8,48.6-73.6,82.3-131.3,82.3c-80.7,0-146.3-65.6-146.3-146.3c0-80.7,65.6-146.3,146.3-146.3
		c75.2,0,137.2,57,145.3,130.1l-25.5-10.7c-1.1-0.4-2.3-0.2-3,0.7c-0.8,0.8-1,2.1-0.5,3.1c19,38.5,17.6,35.6,53.2,107.6l0,0v0
		c0.5,1.1,1.6,1.8,2.8,1.8c1.2,0,2.3-0.7,2.8-1.8c43-87,31.9-64.6,53.2-107.6C462,269.3,461.8,268.1,461,267.3z"/>
</g>
</svg>
