<?xml version="1.0" encoding="utf-8"?>
<!-- Generator: Adobe Illustrator 19.2.1, SVG Export Plug-In . SVG Version: 6.00 Build 0)  -->
<svg version="1.1" id="Calque_1" xmlns="http://www.w3.org/2000/svg" xmlns:xlink="http://www.w3.org/1999/xlink" x="0px" y="0px"
	 viewBox="0 0 262.7 262.7" style="enable-background:new 0 0 262.7 262.7;" xml:space="preserve">
<style type="text/css">
	.st0{fill:#363636;}
	.st1{fill:#363636;stroke:#000000;stroke-width:0.5;stroke-miterlimit:10;stroke-dasharray:2,2,2,2,2,2;}
	.st2{fill:none;stroke:#4779BA;stroke-miterlimit:10;}
	.st3{fill:none;stroke:#2FB688;stroke-miterlimit:10;}
	.st4{fill:none;stroke:#EE582F;stroke-miterlimit:10;}
	.st5{fill:none;}
	.st6{fill:#363636;stroke:#E3AD35;stroke-width:0.25;stroke-miterlimit:10;stroke-dasharray:2,2,2,2,2,2;}
	.st7{fill:none;stroke:#E3AD35;stroke-width:0.5;stroke-miterlimit:10;}
	.st8{fill:none;stroke:#E3AD35;stroke-width:0.25;stroke-miterlimit:10;}
	.st9{fill:none;stroke:#E3AD35;stroke-width:0.25;stroke-miterlimit:10;stroke-dasharray:1.9433,1.9433,1.9433,1.9433;}
	
		.st10{fill:none;stroke:#E3AD35;stroke-width:0.25;stroke-miterlimit:10;stroke-dasharray:1.9433,1.9433,1.9433,1.9433,1.9433,1.9433;}
</style>
<circle class="st0" cx="132.1" cy="132.1" r="93.3"/>
<circle class="st1" cx="132.1" cy="132.1" r="23.3"/>
<polygon class="st2" points="67.7,243.6 3.4,132.1 67.7,20.6 196.5,20.6 260.9,132.1 196.5,243.6 "/>
<polygon class="st3" points="7.8,165.4 41.1,41.1 165.4,7.8 256.5,98.8 223.2,223.2 98.8,256.5 "/>
<polygon class="st4" points="20.6,67.7 132.1,3.4 243.6,67.7 243.6,196.5 132.1,260.9 20.6,196.5 "/>
<g>
	<path class="st5" d="M195.5,244.4"/>
</g>
<g>
	<path class="st5" d="M68.7,20"/>
</g>
<g>
	<path class="st5" d="M223,223.6"/>
</g>
<g>
	<path class="st5" d="M41.3,40.8"/>
</g>
<g>
	<path class="st5" d="M243.8,196.5"/>
</g>
<g>
	<path class="st5" d="M20.4,67.9"/>
</g>
<g>
	<path class="st5" d="M243.8,196.5"/>
</g>
<g>
	<path class="st5" d="M20.4,67.9"/>
</g>
<g>
	<circle class="st6" cx="132.1" cy="132.1" r="46.7"/>
	<g>
		<circle class="st7" cx="132.1" cy="132.1" r="23.3"/>
		<circle class="st7" cx="155.4" cy="132.1" r="23.3"/>
		<circle class="st7" cx="132.1" cy="155.4" r="23.3"/>
		<circle class="st7" cx="132.1" cy="108.8" r="23.3"/>
		<circle class="st7" cx="108.8" cy="132.1" r="23.3"/>
	</g>
	<g>
		
			<ellipse transform="matrix(0.7071 -0.7071 0.7071 0.7071 -54.7238 132.1151)" class="st7" cx="132.1" cy="132.1" rx="23.3" ry="23.3"/>
		
			<ellipse transform="matrix(0.7071 -0.7071 0.7071 0.7071 -61.558 148.6142)" class="st7" cx="148.6" cy="148.6" rx="23.3" ry="23.3"/>
		
			<ellipse transform="matrix(0.7071 -0.7071 0.7071 0.7071 -71.223 125.2809)" class="st7" cx="115.6" cy="148.6" rx="23.3" ry="23.3"/>
		
			<ellipse transform="matrix(0.7071 -0.7071 0.7071 0.7071 -38.2247 138.9492)" class="st7" cx="148.6" cy="115.6" rx="23.3" ry="23.3"/>
		
			<ellipse transform="matrix(0.7071 -0.7071 0.7071 0.7071 -47.8897 115.6159)" class="st7" cx="115.6" cy="115.6" rx="23.3" ry="23.3"/>
	</g>
	<g>
		<g>
			<line class="st8" x1="120" y1="177.2" x2="120.3" y2="176.2"/>
			<line class="st9" x1="120.8" y1="174.3" x2="122.6" y2="167.8"/>
			<line class="st10" x1="122.8" y1="166.8" x2="143.7" y2="88.9"/>
			<line class="st8" x1="143.9" y1="88" x2="144.2" y2="87"/>
		</g>
		<g>
			<line class="st8" x1="108.8" y1="172.5" x2="109.3" y2="171.7"/>
			<line class="st9" x1="110.3" y1="170" x2="113.7" y2="164.1"/>
			<line class="st10" x1="114.1" y1="163.2" x2="154.5" y2="93.4"/>
			<line class="st8" x1="154.9" y1="92.6" x2="155.4" y2="91.7"/>
		</g>
		<g>
			<line class="st8" x1="99.1" y1="165.1" x2="99.8" y2="164.4"/>
			<line class="st9" x1="101.2" y1="163" x2="106" y2="158.2"/>
			<line class="st10" x1="106.7" y1="157.5" x2="163.7" y2="100.5"/>
			<line class="st8" x1="164.4" y1="99.8" x2="165.1" y2="99.1"/>
		</g>
		<g>
			<line class="st8" x1="91.7" y1="155.4" x2="92.6" y2="154.9"/>
			<line class="st9" x1="94.2" y1="154" x2="100.1" y2="150.6"/>
			<line class="st10" x1="101" y1="150.1" x2="170.8" y2="109.8"/>
			<line class="st8" x1="171.7" y1="109.3" x2="172.5" y2="108.8"/>
		</g>
		<g>
			<line class="st8" x1="87" y1="144.2" x2="88" y2="143.9"/>
			<line class="st9" x1="89.9" y1="143.4" x2="96.5" y2="141.7"/>
			<line class="st10" x1="97.4" y1="141.4" x2="175.3" y2="120.5"/>
			<line class="st8" x1="176.2" y1="120.3" x2="177.2" y2="120"/>
		</g>
		<g>
			<line class="st8" x1="85.4" y1="132.1" x2="86.4" y2="132.1"/>
			<line class="st9" x1="88.4" y1="132.1" x2="95.2" y2="132.1"/>
			<line class="st10" x1="96.2" y1="132.1" x2="176.8" y2="132.1"/>
			<line class="st8" x1="177.8" y1="132.1" x2="178.8" y2="132.1"/>
		</g>
		<g>
			<line class="st8" x1="87" y1="120" x2="88" y2="120.3"/>
			<line class="st9" x1="89.9" y1="120.8" x2="96.5" y2="122.6"/>
			<line class="st10" x1="97.4" y1="122.8" x2="175.3" y2="143.7"/>
			<line class="st8" x1="176.2" y1="143.9" x2="177.2" y2="144.2"/>
		</g>
		<g>
			<line class="st8" x1="91.7" y1="108.8" x2="92.6" y2="109.3"/>
			<line class="st9" x1="94.2" y1="110.3" x2="100.1" y2="113.7"/>
			<line class="st10" x1="101" y1="114.1" x2="170.8" y2="154.5"/>
			<line class="st8" x1="171.7" y1="154.9" x2="172.5" y2="155.4"/>
		</g>
		<g>
			<line class="st8" x1="99.1" y1="99.1" x2="99.8" y2="99.8"/>
			<line class="st9" x1="101.2" y1="101.2" x2="106" y2="106"/>
			<line class="st10" x1="106.7" y1="106.7" x2="163.7" y2="163.7"/>
			<line class="st8" x1="164.4" y1="164.4" x2="165.1" y2="165.1"/>
		</g>
		<g>
			<line class="st8" x1="108.8" y1="91.7" x2="109.3" y2="92.6"/>
			<line class="st9" x1="110.3" y1="94.2" x2="113.7" y2="100.1"/>
			<line class="st10" x1="114.1" y1="101" x2="154.5" y2="170.8"/>
			<line class="st8" x1="154.9" y1="171.7" x2="155.4" y2="172.5"/>
		</g>
		<g>
			<line class="st8" x1="120" y1="87" x2="120.3" y2="88"/>
			<line class="st9" x1="120.8" y1="89.9" x2="122.6" y2="96.5"/>
			<line class="st10" x1="122.8" y1="97.4" x2="143.7" y2="175.3"/>
			<line class="st8" x1="143.9" y1="176.2" x2="144.2" y2="177.2"/>
		</g>
		<g>
			<line class="st8" x1="132.1" y1="85.4" x2="132.1" y2="86.4"/>
			<line class="st9" x1="132.1" y1="88.4" x2="132.1" y2="95.2"/>
			<line class="st10" x1="132.1" y1="96.2" x2="132.1" y2="176.8"/>
			<line class="st8" x1="132.1" y1="177.8" x2="132.1" y2="178.8"/>
		</g>
	</g>
</g>
</svg>
