<svg id="Calque_1" data-name="Calque 1" xmlns="http://www.w3.org/2000/svg" viewBox="0 0 290.68 170.39"><defs><style>.cls-1{fill:#fff;}</style></defs><title>arrow_next</title><path class="cls-1" d="M277.38,45.26a17.54,17.54,0,1,1,17.54-17.54A17.54,17.54,0,0,1,277.38,45.26Z" transform="translate(-4.25 -10.18)"/><circle class="cls-1" cx="230.54" cy="17.54" r="17.54"/><circle class="cls-1" cx="230.54" cy="62.64" r="17.54"/><circle class="cls-1" cx="187.94" cy="17.54" r="17.54"/><circle class="cls-1" cx="187.94" cy="62.64" r="17.54"/><path class="cls-1" d="M192.18,135.47a17.54,17.54,0,1,1,17.54-17.54A17.54,17.54,0,0,1,192.18,135.47Z" transform="translate(-4.25 -10.18)"/><circle class="cls-1" cx="145.34" cy="17.54" r="17.54"/><circle class="cls-1" cx="145.34" cy="62.64" r="17.54"/><path class="cls-1" d="M149.58,135.47a17.54,17.54,0,1,1,17.54-17.54A17.54,17.54,0,0,1,149.58,135.47Z" transform="translate(-4.25 -10.18)"/><circle class="cls-1" cx="145.34" cy="152.85" r="17.54"/><circle class="cls-1" cx="102.74" cy="17.54" r="17.54"/><circle class="cls-1" cx="102.74" cy="62.64" r="17.54"/><path class="cls-1" d="M107,135.47a17.54,17.54,0,1,1,17.54-17.54A17.54,17.54,0,0,1,107,135.47Z" transform="translate(-4.25 -10.18)"/><circle class="cls-1" cx="60.14" cy="17.54" r="17.54"/><circle class="cls-1" cx="60.14" cy="62.64" r="17.54"/><circle class="cls-1" cx="17.54" cy="17.54" r="17.54"/></svg>